Coda.ufo
<glyph name="exclam" format="1">
  <advance width="519"/>
  <unicode hex="0021"/>
  <outline>
    <contour>
      <point x="260" y="498" type="curve" smooth="yes"/>
      <point x="248" y="498"/>
      <point x="234" y="503"/>
      <point x="231" y="534" type="curve" smooth="yes"/>
      <point x="166" y="1217"/>
      <point x="152" y="1386"/>
      <point x="152" y="1418" type="curve" smooth="yes"/>
      <point x="152" y="1510"/>
      <point x="177" y="1556"/>
      <point x="260" y="1556" type="curve" smooth="yes"/>
      <point x="343" y="1556"/>
      <point x="368" y="1510"/>
      <point x="368" y="1418" type="curve" smooth="yes"/>
      <point x="368" y="1386"/>
      <point x="354" y="1217"/>
      <point x="289" y="534" type="curve" smooth="yes"/>
      <point x="286" y="503"/>
      <point x="272" y="498"/>
    </contour>
    <contour>
      <point x="360" y="0" type="curve"/>
      <point x="162" y="0" type="line"/>
      <point x="162" y="76"/>
      <point x="163" y="152"/>
      <point x="163" y="228" type="curve"/>
      <point x="359" y="228" type="line"/>
      <point x="359" y="152"/>
      <point x="360" y="76"/>
    </contour>
  </outline>
</glyph>
<glyph name="quotedbl" format="1">
  <advance width="721"/>
  <unicode hex="0022"/>
  <outline>
    <contour>
      <point x="515" y="923" type="curve"/>
      <point x="490" y="929" type="line"/>
      <point x="490" y="929"/>
      <point x="415" y="1284"/>
      <point x="415" y="1363" type="curve" smooth="yes"/>
      <point x="415" y="1460"/>
      <point x="429" y="1500"/>
      <point x="502" y="1500" type="curve" smooth="yes"/>
      <point x="558" y="1500"/>
      <point x="588" y="1460"/>
      <point x="588" y="1378" type="curve" smooth="yes"/>
      <point x="588" y="1295"/>
      <point x="515" y="923"/>
    </contour>
    <contour>
      <point x="236" y="923" type="curve"/>
      <point x="211" y="929" type="line"/>
      <point x="211" y="929"/>
      <point x="136" y="1284"/>
      <point x="136" y="1363" type="curve" smooth="yes"/>
      <point x="136" y="1460"/>
      <point x="150" y="1500"/>
      <point x="223" y="1500" type="curve" smooth="yes"/>
      <point x="279" y="1500"/>
      <point x="309" y="1460"/>
      <point x="309" y="1378" type="curve" smooth="yes"/>
      <point x="309" y="1295"/>
      <point x="236" y="923"/>
    </contour>
  </outline>
</glyph>
<glyph name="numbersign" format="1">
  <advance width="1614"/>
  <unicode hex="0023"/>
  <outline>
    <contour>
      <point x="680" y="963" type="line"/>
      <point x="611" y="561" type="line"/>
      <point x="936" y="561" type="line"/>
      <point x="1004" y="963" type="line"/>
    </contour>
    <contour>
      <point x="1113" y="561" type="line"/>
      <point x="1390" y="561" type="line"/>
      <point x="1367" y="406" type="line"/>
      <point x="1088" y="406" type="line"/>
      <point x="1018" y="0" type="line"/>
      <point x="842" y="0" type="line"/>
      <point x="912" y="406" type="line"/>
      <point x="584" y="406" type="line"/>
      <point x="512" y="0" type="line"/>
      <point x="335" y="0" type="line"/>
      <point x="404" y="406" type="line"/>
      <point x="129" y="406" type="line"/>
      <point x="156" y="561" type="line"/>
      <point x="430" y="561" type="line"/>
      <point x="497" y="963" type="line"/>
      <point x="227" y="963" type="line"/>
      <point x="254" y="1131" type="line"/>
      <point x="526" y="1131" type="line"/>
      <point x="590" y="1490" type="line"/>
      <point x="772" y="1490" type="line"/>
      <point x="709" y="1131" type="line"/>
      <point x="1031" y="1131" type="line"/>
      <point x="1093" y="1490" type="line"/>
      <point x="1269" y="1490" type="line"/>
      <point x="1208" y="1131" type="line"/>
      <point x="1481" y="1131" type="line"/>
      <point x="1458" y="963" type="line"/>
      <point x="1180" y="963" type="line"/>
    </contour>
  </outline>
</glyph>
<glyph name="parenleft" format="1">
  <advance width="804"/>
  <unicode hex="0028"/>
  <outline>
    <contour>
      <point x="146" y="727" type="curve" smooth="yes"/>
      <point x="146" y="729" type="line" smooth="yes"/>
      <point x="146" y="1239"/>
      <point x="279" y="1651"/>
      <point x="678" y="1685" type="curve"/>
      <point x="693" y="1548" type="line"/>
      <point x="425" y="1507"/>
      <point x="337" y="1195"/>
      <point x="337" y="728" type="curve" smooth="yes"/>
      <point x="337" y="261"/>
      <point x="425" y="-51"/>
      <point x="693" y="-92" type="curve"/>
      <point x="678" y="-229" type="line"/>
      <point x="279" y="-195"/>
      <point x="146" y="217"/>
    </contour>
  </outline>
</glyph>
<glyph name="comma" format="1">
  <advance width="562"/>
  <unicode hex="002C"/>
  <outline>
    <contour>
      <point x="118" y="-227" type="curve"/>
      <point x="118" y="-159" type="line"/>
      <point x="206" y="-159"/>
      <point x="290" y="-89"/>
      <point x="290" y="0" type="curve"/>
      <point x="205" y="0"/>
      <point x="146" y="70"/>
      <point x="146" y="154" type="curve" smooth="yes"/>
      <point x="146" y="240"/>
      <point x="200" y="309"/>
      <point x="293" y="309" type="curve" smooth="yes"/>
      <point x="381" y="309"/>
      <point x="434" y="225"/>
      <point x="434" y="130" type="curve" smooth="yes"/>
      <point x="434" y="-39"/>
      <point x="318" y="-231"/>
      <point x="178" y="-231" type="curve" smooth="yes"/>
      <point x="149" y="-231"/>
      <point x="129" y="-230"/>
    </contour>
  </outline>
</glyph>
<glyph name="hyphen" format="1">
  <advance width="851"/>
  <unicode hex="002D"/>
  <outline>
    <contour>
      <point x="718" y="677" type="line"/>
      <point x="718" y="538" type="line"/>
      <point x="131" y="538" type="line"/>
      <point x="131" y="677" type="line"/>
    </contour>
  </outline>
</glyph>
<glyph name="one" format="1">
  <advance width="658"/>
  <unicode hex="0031"/>
  <outline>
    <contour>
      <point x="342" y="1482" type="curve"/>
      <point x="497" y="1482" type="line"/>
      <point x="497" y="0" type="line"/>
      <point x="310" y="0" type="line"/>
      <point x="310" y="1244" type="line"/>
      <point x="125" y="1244" type="line"/>
      <point x="125" y="1336" type="line"/>
      <point x="227" y="1340"/>
      <point x="303" y="1386"/>
    </contour>
  </outline>
</glyph>
<glyph name="two" format="1">
  <advance width="1176"/>
  <unicode hex="0032"/>
  <outline>
    <contour>
      <point x="326" y="146" type="curve"/>
      <point x="1008" y="146" type="line"/>
      <point x="1008" y="9" type="line"/>
      <point x="145" y="9" type="line"/>
      <point x="146" y="315"/>
      <point x="193" y="427"/>
      <point x="365" y="546" type="curve" smooth="yes"/>
      <point x="695" y="774"/>
      <point x="840" y="763"/>
      <point x="840" y="1098" type="curve" smooth="yes"/>
      <point x="840" y="1287"/>
      <point x="834" y="1368"/>
      <point x="599" y="1368" type="curve" smooth="yes"/>
      <point x="394" y="1368"/>
      <point x="326" y="1339"/>
      <point x="308" y="1125" type="curve"/>
      <point x="160" y="1160" type="line"/>
      <point x="159" y="1169"/>
      <point x="159" y="1178"/>
      <point x="159" y="1187" type="curve" smooth="yes"/>
      <point x="159" y="1423"/>
      <point x="314" y="1507"/>
      <point x="584" y="1507" type="curve" smooth="yes"/>
      <point x="895" y="1507"/>
      <point x="1026" y="1439"/>
      <point x="1026" y="1098" type="curve" smooth="yes"/>
      <point x="1026" y="818"/>
      <point x="930" y="709"/>
      <point x="726" y="594" type="curve" smooth="yes"/>
      <point x="485" y="459"/>
      <point x="331" y="398"/>
    </contour>
  </outline>
</glyph>
<glyph name="four" format="1">
  <advance width="1204"/>
  <unicode hex="0034"/>
  <outline>
    <contour>
      <point x="316" y="521" type="curve"/>
      <point x="745" y="521" type="line"/>
      <point x="745" y="1379" type="line"/>
      <point x="715" y="1316"/>
      <point x="680" y="1250"/>
      <point x="648" y="1185" type="curve" smooth="yes"/>
      <point x="413" y="713" type="line" smooth="yes"/>
      <point x="381" y="648"/>
      <point x="346" y="582"/>
    </contour>
    <contour>
      <point x="930" y="521" type="line"/>
      <point x="1069" y="521" type="line"/>
      <point x="1069" y="390" type="line"/>
      <point x="930" y="390" type="line"/>
      <point x="930" y="0" type="line"/>
      <point x="745" y="0" type="line"/>
      <point x="745" y="389" type="line"/>
      <point x="123" y="389" type="line"/>
      <point x="123" y="539" type="line"/>
      <point x="641" y="1482" type="line"/>
      <point x="930" y="1482" type="line"/>
    </contour>
  </outline>
</glyph>
<glyph name="seven" format="1">
  <advance width="981"/>
  <unicode hex="0037"/>
  <outline>
    <contour>
      <point x="118" y="1330" type="line"/>
      <point x="118" y="1482" type="line"/>
      <point x="862" y="1482" type="line"/>
      <point x="862" y="1312" type="line"/>
      <point x="700" y="893"/>
      <point x="540" y="457"/>
      <point x="415" y="0" type="curve"/>
      <point x="231" y="0" type="line"/>
      <point x="365" y="455"/>
      <point x="522" y="897"/>
      <point x="693" y="1330" type="curve"/>
    </contour>
  </outline>
</glyph>
<glyph name="equal" format="1">
  <advance width="1124"/>
  <unicode hex="003D"/>
  <outline>
    <contour>
      <point x="144" y="503" type="line"/>
      <point x="979" y="503" type="line"/>
      <point x="979" y="314" type="line"/>
      <point x="144" y="314" type="line"/>
    </contour>
    <contour>
      <point x="144" y="881" type="line"/>
      <point x="979" y="881" type="line"/>
      <point x="979" y="692" type="line"/>
      <point x="144" y="692" type="line"/>
    </contour>
  </outline>
</glyph>
<glyph name="C" format="1">
  <advance width="1357"/>
  <unicode hex="0043"/>
  <outline>
    <contour>
      <point x="1084" y="462" type="curve"/>
      <point x="1258" y="436" type="line"/>
      <point x="1237" y="65"/>
      <point x="1136" y="-24"/>
      <point x="772" y="-24" type="curve" smooth="yes"/>
      <point x="179" y="-24"/>
      <point x="144" y="158"/>
      <point x="144" y="748" type="curve" smooth="yes"/>
      <point x="144" y="1397"/>
      <point x="187" y="1513"/>
      <point x="754" y="1513" type="curve" smooth="yes"/>
      <point x="1098" y="1513"/>
      <point x="1230" y="1444"/>
      <point x="1257" y="1078" type="curve"/>
      <point x="1082" y="1044" type="line"/>
      <point x="1051" y="1355"/>
      <point x="1019" y="1360"/>
      <point x="742" y="1360" type="curve" smooth="yes"/>
      <point x="490" y="1360"/>
      <point x="363" y="1347"/>
      <point x="356" y="1203" type="curve" smooth="yes"/>
      <point x="348" y="1027"/>
      <point x="347" y="847"/>
      <point x="347" y="664" type="curve" smooth="yes"/>
      <point x="347" y="536"/>
      <point x="348" y="411"/>
      <point x="356" y="289" type="curve" smooth="yes"/>
      <point x="363" y="184"/>
      <point x="444" y="130"/>
      <point x="743" y="130" type="curve" smooth="yes"/>
      <point x="1086" y="130"/>
      <point x="1063" y="208"/>
    </contour>
    <contour>
      <point x="654" y="1490" type="move" name="top"/>
    </contour>
    <contour>
      <point x="654" y="0" type="move" name="bottom"/>
    </contour>
  </outline>
</glyph>
<glyph name="D" format="1">
  <advance width="1412"/>
  <unicode hex="0044"/>
  <outline>
    <contour>
      <point x="1067" y="620" type="curve" smooth="yes"/>
      <point x="1067" y="873" type="line" smooth="yes"/>
      <point x="1067" y="1259"/>
      <point x="1067" y="1336"/>
      <point x="574" y="1336" type="curve" smooth="yes"/>
      <point x="364" y="1336" type="line"/>
      <point x="364" y="153" type="line"/>
      <point x="604" y="153" type="line" smooth="yes"/>
      <point x="998" y="153"/>
      <point x="1067" y="168"/>
    </contour>
    <contour>
      <point x="1268" y="876" type="curve" smooth="yes"/>
      <point x="1268" y="53"/>
      <point x="1223" y="0"/>
      <point x="523" y="0" type="curve" smooth="yes"/>
      <point x="161" y="0" type="line"/>
      <point x="161" y="1490" type="line"/>
      <point x="677" y="1490" type="line" smooth="yes"/>
      <point x="1163" y="1490"/>
      <point x="1268" y="1371"/>
    </contour>
    <contour>
      <point x="703" y="1490" type="move" name="top"/>
    </contour>
    <contour>
      <point x="703" y="745" type="move" name="center"/>
    </contour>
  </outline>
</glyph>
<glyph name="H" format="1">
  <advance width="1394"/>
  <unicode hex="0048"/>
  <outline>
    <contour>
      <point x="702" y="1490" type="move" name="top"/>
    </contour>
    <contour>
      <point x="702" y="745" type="move" name="center"/>
    </contour>
    <contour>
      <point x="1030" y="1490" type="line"/>
      <point x="1233" y="1490" type="line"/>
      <point x="1233" y="0" type="line"/>
      <point x="1030" y="0" type="line"/>
      <point x="1030" y="684" type="line"/>
      <point x="364" y="684" type="line"/>
      <point x="364" y="0" type="line"/>
      <point x="161" y="0" type="line"/>
      <point x="161" y="1490" type="line"/>
      <point x="364" y="1490" type="line"/>
      <point x="364" y="842" type="line"/>
      <point x="1030" y="842" type="line"/>
    </contour>
  </outline>
</glyph>
<glyph name="J" format="1">
  <advance width="757"/>
  <unicode hex="004A"/>
  <outline>
    <contour>
      <point x="396" y="307" type="curve" smooth="yes"/>
      <point x="396" y="1490" type="line"/>
      <point x="599" y="1490" type="line"/>
      <point x="599" y="432" type="line" smooth="yes"/>
      <point x="599" y="153"/>
      <point x="587" y="-24"/>
      <point x="348" y="-24" type="curve" smooth="yes"/>
      <point x="263" y="-24"/>
      <point x="135" y="5"/>
      <point x="60" y="39" type="curve"/>
      <point x="81" y="193" type="line"/>
      <point x="147" y="168"/>
      <point x="248" y="148"/>
      <point x="286" y="148" type="curve" smooth="yes"/>
      <point x="381" y="148"/>
      <point x="396" y="219"/>
    </contour>
    <contour>
      <point x="363" y="1490" type="move" name="top"/>
    </contour>
  </outline>
</glyph>
<glyph name="K" format="1">
  <advance width="1219"/>
  <unicode hex="004B"/>
  <outline>
    <contour>
      <point x="1183" y="1490" type="line"/>
      <point x="609" y="780" type="line"/>
      <point x="1249" y="0" type="line"/>
      <point x="1004" y="0" type="line"/>
      <point x="441" y="684" type="line"/>
      <point x="363" y="591" type="line"/>
      <point x="363" y="0" type="line"/>
      <point x="161" y="0" type="line"/>
      <point x="161" y="1490" type="line"/>
      <point x="363" y="1490" type="line"/>
      <point x="363" y="935" type="line" smooth="yes"/>
      <point x="363" y="878"/>
      <point x="362" y="808"/>
      <point x="362" y="754" type="curve"/>
      <point x="395" y="798"/>
      <point x="440" y="854"/>
      <point x="477" y="901" type="curve" smooth="yes"/>
      <point x="942" y="1490" type="line"/>
    </contour>
    <contour>
      <point x="615" y="1490" type="move" name="top"/>
    </contour>
    <contour>
      <point x="615" y="0" type="move" name="bottom"/>
    </contour>
  </outline>
</glyph>
<glyph name="L" format="1">
  <advance width="1033"/>
  <unicode hex="004C"/>
  <outline>
    <contour>
      <point x="364" y="153" type="line"/>
      <point x="938" y="153" type="line"/>
      <point x="918" y="0" type="line"/>
      <point x="161" y="0" type="line"/>
      <point x="161" y="1490" type="line"/>
      <point x="364" y="1490" type="line"/>
    </contour>
    <contour>
      <point x="500" y="1490" type="move" name="top"/>
    </contour>
    <contour>
      <point x="500" y="0" type="move" name="bottom"/>
    </contour>
  </outline>
</glyph>
<glyph name="M" format="1">
  <advance width="1742"/>
  <unicode hex="004D"/>
  <outline>
    <contour>
      <point x="380" y="1192" type="line"/>
      <point x="336" y="0" type="line"/>
      <point x="149" y="0" type="line"/>
      <point x="223" y="1499" type="line"/>
      <point x="443" y="1499" type="line"/>
      <point x="873" y="326" type="line"/>
      <point x="1295" y="1499" type="line"/>
      <point x="1515" y="1499" type="line"/>
      <point x="1594" y="0" type="line"/>
      <point x="1396" y="0" type="line"/>
      <point x="1344" y="1201" type="line"/>
      <point x="930" y="0" type="line"/>
      <point x="814" y="0" type="line"/>
    </contour>
  </outline>
</glyph>
<glyph name="N" format="1">
  <advance width="1421"/>
  <unicode hex="004E"/>
  <outline>
    <contour>
      <point x="716" y="1490" type="move" name="top"/>
    </contour>
    <contour>
      <point x="716" y="0" type="move" name="bottom"/>
    </contour>
    <contour>
      <point x="1082" y="1490" type="line"/>
      <point x="1260" y="1490" type="line"/>
      <point x="1260" y="0" type="line"/>
      <point x="1049" y="0" type="line"/>
      <point x="339" y="1177" type="line"/>
      <point x="339" y="0" type="line"/>
      <point x="161" y="0" type="line"/>
      <point x="161" y="1490" type="line"/>
      <point x="366" y="1490" type="line"/>
      <point x="1082" y="297" type="line"/>
    </contour>
  </outline>
</glyph>
<glyph name="P" format="1">
  <advance width="1254"/>
  <unicode hex="0050"/>
  <outline>
    <contour>
      <point x="965" y="1015" type="curve" smooth="yes"/>
      <point x="960" y="1281"/>
      <point x="939" y="1340"/>
      <point x="757" y="1340" type="curve" smooth="yes"/>
      <point x="363" y="1340" type="line"/>
      <point x="363" y="672" type="line"/>
      <point x="716" y="672" type="line" smooth="yes"/>
      <point x="925" y="672"/>
      <point x="966" y="743"/>
      <point x="966" y="906" type="curve" smooth="yes"/>
      <point x="966" y="939"/>
      <point x="965" y="975"/>
    </contour>
    <contour>
      <point x="1167" y="1004" type="curve" smooth="yes"/>
      <point x="1167" y="575"/>
      <point x="1010" y="521"/>
      <point x="760" y="521" type="curve" smooth="yes"/>
      <point x="363" y="521" type="line"/>
      <point x="363" y="0" type="line"/>
      <point x="161" y="0" type="line"/>
      <point x="161" y="1490" type="line"/>
      <point x="701" y="1490" type="line" smooth="yes"/>
      <point x="1054" y="1490"/>
      <point x="1167" y="1414"/>
    </contour>
  </outline>
</glyph>
<glyph name="U" format="1">
  <advance width="1417"/>
  <unicode hex="0055"/>
  <outline>
    <contour>
      <point x="1069" y="435" type="curve" smooth="yes"/>
      <point x="1069" y="1490" type="line"/>
      <point x="1271" y="1490" type="line"/>
      <point x="1271" y="557" type="line" smooth="yes"/>
      <point x="1271" y="88"/>
      <point x="1150" y="-24"/>
      <point x="707" y="-24" type="curve" smooth="yes"/>
      <point x="284" y="-24"/>
      <point x="146" y="69"/>
      <point x="146" y="557" type="curve" smooth="yes"/>
      <point x="146" y="1490" type="line"/>
      <point x="349" y="1490" type="line"/>
      <point x="349" y="531" type="line" smooth="yes"/>
      <point x="349" y="177"/>
      <point x="350" y="130"/>
      <point x="708" y="130" type="curve" smooth="yes"/>
      <point x="1035" y="130"/>
      <point x="1069" y="188"/>
    </contour>
    <contour>
      <point x="703" y="1490" type="move" name="top"/>
    </contour>
    <contour>
      <point x="1274" y="10" type="move" name="ogonek"/>
    </contour>
  </outline>
</glyph>
<glyph name="V" format="1">
  <advance width="1289"/>
  <unicode hex="0056"/>
  <outline>
    <contour>
      <point x="642" y="259" type="line"/>
      <point x="1013" y="1490" type="line"/>
      <point x="1233" y="1490" type="line"/>
      <point x="743" y="0" type="line"/>
      <point x="533" y="0" type="line"/>
      <point x="56" y="1490" type="line"/>
      <point x="271" y="1490" type="line"/>
    </contour>
  </outline>
</glyph>
<glyph name="asciicircum" format="1">
  <advance width="801"/>
  <unicode hex="005E"/>
  <outline>
    <contour>
      <point x="407" y="1627" type="line"/>
      <point x="176" y="1391" type="line"/>
      <point x="121" y="1445" type="line"/>
      <point x="313" y="1754" type="line"/>
      <point x="339" y="1793"/>
      <point x="371" y="1806"/>
      <point x="407" y="1806" type="curve" smooth="yes"/>
      <point x="443" y="1806"/>
      <point x="476.262" y="1793.81"/>
      <point x="501" y="1754" type="curve" smooth="yes"/>
      <point x="693" y="1445" type="line"/>
      <point x="638" y="1391" type="line"/>
    </contour>
  </outline>
</glyph>
<glyph name="c" format="1">
  <advance width="1099.0"/>
  <unicode hex="0063"/>
  <outline>
    <contour>
      <point x="993.0" y="781.0" type="curve"/>
      <point x="831.0" y="754.0" type="line"/>
      <point x="810.0" y="893.0" type="line" smooth="yes"/>
      <point x="799.0" y="963.0"/>
      <point x="801.0" y="989.0"/>
      <point x="585.0" y="989.0" type="curve" smooth="yes"/>
      <point x="494.0" y="989.0"/>
      <point x="436.0" y="980.0"/>
      <point x="407.0" y="974.0" type="curve" smooth="yes"/>
      <point x="342.0" y="959.0"/>
      <point x="319.0" y="822.0"/>
      <point x="319.0" y="680.0" type="curve" smooth="yes"/>
      <point x="319.0" y="468.0" type="line" smooth="yes"/>
      <point x="319.0" y="144.0"/>
      <point x="352.0" y="123.0"/>
      <point x="567.0" y="123.0" type="curve" smooth="yes"/>
      <point x="832.0" y="123.0"/>
      <point x="810.0" y="196.0"/>
      <point x="829.0" y="365.0" type="curve"/>
      <point x="993.0" y="337.0" type="line"/>
      <point x="972.0" y="54.0"/>
      <point x="933.0" y="-15.0"/>
      <point x="576.0" y="-15.0" type="curve" smooth="yes"/>
      <point x="138.0" y="-15.0"/>
      <point x="132.0" y="136.0"/>
      <point x="132.0" y="619.0" type="curve" smooth="yes"/>
      <point x="132.0" y="1024.0"/>
      <point x="190.0" y="1128.0"/>
      <point x="575.0" y="1128.0" type="curve" smooth="yes"/>
      <point x="880.0" y="1128.0"/>
      <point x="979.0" y="1063.0"/>
    </contour>
    <contour>
      <point x="534.0" y="1097.0" type="move" name="top"/>
    </contour>
    <contour>
      <point x="534.0" y="0.0" type="move" name="bottom"/>
    </contour>
  </outline>
</glyph>
<glyph name="h" format="1">
  <advance width="1185.0"/>
  <unicode hex="0068"/>
  <outline>
    <contour>
      <point x="1036.0" y="629.0" type="curve" smooth="yes"/>
      <point x="1036.0" y="0.0" type="line"/>
      <point x="839.0" y="0.0" type="line"/>
      <point x="839.0" y="666.0" type="line" smooth="yes"/>
      <point x="839.0" y="733.0"/>
      <point x="842.0" y="787.0"/>
      <point x="842.0" y="830.0" type="curve" smooth="yes"/>
      <point x="842.0" y="952.0"/>
      <point x="814.0" y="990.0"/>
      <point x="590.0" y="990.0" type="curve" smooth="yes"/>
      <point x="490.0" y="990.0"/>
      <point x="379.0" y="969.0"/>
      <point x="373.0" y="896.0" type="curve" smooth="yes"/>
      <point x="365.0" y="793.0"/>
      <point x="359.0" y="684.0"/>
      <point x="359.0" y="572.0" type="curve" smooth="yes"/>
      <point x="359.0" y="0.0" type="line"/>
      <point x="161.0" y="0.0" type="line"/>
      <point x="161.0" y="1486.0" type="line"/>
      <point x="359.0" y="1502.0" type="line"/>
      <point x="359.0" y="1014.0" type="line"/>
      <point x="407.0" y="1090.0"/>
      <point x="508.0" y="1128.0"/>
      <point x="657.0" y="1128.0" type="curve" smooth="yes"/>
      <point x="1011.0" y="1128.0"/>
      <point x="1037.0" y="990.0"/>
      <point x="1037.0" y="756.0" type="curve" smooth="yes"/>
      <point x="1037.0" y="717.0"/>
      <point x="1036.0" y="674.0"/>
    </contour>
    <contour>
      <point x="591.0" y="1097.0" type="move" name="top"/>
    </contour>
    <contour>
      <point x="591.0" y="549.0" type="move" name="center"/>
    </contour>
  </outline>
</glyph>
<glyph name="o" format="1">
  <advance width="1188"/>
  <unicode hex="006F"/>
  <outline>
    <contour>
      <point x="593" y="-15" type="curve" smooth="yes"/>
      <point x="158" y="-15"/>
      <point x="132" y="101"/>
      <point x="132" y="558" type="curve" smooth="yes"/>
      <point x="132" y="1035"/>
      <point x="178" y="1128"/>
      <point x="594" y="1128" type="curve" smooth="yes"/>
      <point x="1010" y="1128"/>
      <point x="1056" y="1035"/>
      <point x="1056" y="558" type="curve" smooth="yes"/>
      <point x="1056" y="100"/>
      <point x="1029" y="-15"/>
    </contour>
    <contour>
      <point x="595" y="123" type="curve" smooth="yes"/>
      <point x="772" y="123"/>
      <point x="848" y="140"/>
      <point x="848" y="215" type="curve"/>
      <point x="859" y="546" type="line"/>
      <point x="849" y="895" type="line"/>
      <point x="849" y="989"/>
      <point x="713" y="989"/>
      <point x="594" y="989" type="curve" smooth="yes"/>
      <point x="475" y="989"/>
      <point x="339" y="989"/>
      <point x="339" y="895" type="curve"/>
      <point x="329" y="546" type="line"/>
      <point x="340" y="215" type="line"/>
      <point x="340" y="142"/>
      <point x="418" y="123"/>
    </contour>
    <contour>
      <point x="572" y="1097" type="move" name="top"/>
    </contour>
  </outline>
</glyph>
<glyph name="t" format="1">
  <advance width="793"/>
  <unicode hex="0074"/>
  <outline>
    <contour>
      <point x="677" y="139" type="curve"/>
      <point x="673" y="-1" type="line"/>
      <point x="619" y="-10"/>
      <point x="538" y="-15"/>
      <point x="491" y="-15" type="curve" smooth="yes"/>
      <point x="291" y="-15"/>
      <point x="257" y="77"/>
      <point x="257" y="238" type="curve" smooth="yes"/>
      <point x="257" y="985" type="line"/>
      <point x="108" y="985" type="line"/>
      <point x="108" y="1097" type="line"/>
      <point x="257" y="1097" type="line"/>
      <point x="257" y="1409" type="line"/>
      <point x="453" y="1425" type="line"/>
      <point x="453" y="1097" type="line"/>
      <point x="655" y="1097" type="line"/>
      <point x="655" y="985" type="line"/>
      <point x="453" y="985" type="line"/>
      <point x="453" y="305" type="line" smooth="yes"/>
      <point x="453" y="172"/>
      <point x="455" y="133"/>
      <point x="521" y="133" type="curve" smooth="yes"/>
      <point x="563" y="133"/>
      <point x="637" y="136"/>
    </contour>
    <contour>
      <point x="317" y="549" type="move" name="center"/>
    </contour>
    <contour>
      <point x="317" y="0" type="move" name="bottom"/>
    </contour>
  </outline>
</glyph>
<glyph name="v" format="1">
  <advance width="1037"/>
  <unicode hex="0076"/>
  <outline>
    <contour>
      <point x="515" y="171" type="line"/>
      <point x="781" y="1097" type="line"/>
      <point x="984" y="1097" type="line"/>
      <point x="621" y="0" type="line"/>
      <point x="407" y="0" type="line"/>
      <point x="52" y="1097" type="line"/>
      <point x="237" y="1097" type="line"/>
    </contour>
  </outline>
</glyph>
<glyph name="x" format="1">
  <advance width="1052"/>
  <unicode hex="0078"/>
  <outline>
    <contour>
      <point x="972" y="1097" type="line"/>
      <point x="639" y="563" type="line"/>
      <point x="981" y="0" type="line"/>
      <point x="774" y="0" type="line"/>
      <point x="529" y="430" type="line"/>
      <point x="261" y="0" type="line"/>
      <point x="76" y="0" type="line"/>
      <point x="422" y="565" type="line"/>
      <point x="84" y="1097" type="line"/>
      <point x="290" y="1097" type="line"/>
      <point x="529" y="688" type="line"/>
      <point x="789" y="1097" type="line"/>
    </contour>
  </outline>
</glyph>
<glyph name="y" format="1">
  <advance width="1032"/>
  <unicode hex="0079"/>
  <outline>
    <contour>
      <point x="640" y="587" type="line"/>
      <point x="795" y="1097" type="line"/>
      <point x="992" y="1097" type="line"/>
      <point x="646" y="53" type="line" smooth="yes"/>
      <point x="572" y="-171"/>
      <point x="606" y="-346"/>
      <point x="386" y="-346" type="curve" smooth="yes"/>
      <point x="314" y="-346"/>
      <point x="218" y="-335"/>
      <point x="146" y="-318" type="curve"/>
      <point x="170" y="-167" type="line"/>
      <point x="225" y="-174"/>
      <point x="306" y="-190"/>
      <point x="350" y="-190" type="curve" smooth="yes"/>
      <point x="428" y="-190"/>
      <point x="450" y="-148"/>
      <point x="451" y="21" type="curve"/>
      <point x="40" y="1097" type="line"/>
      <point x="235" y="1097" type="line"/>
      <point x="437" y="540" type="line" smooth="yes"/>
      <point x="540" y="243" type="line"/>
    </contour>
    <contour>
      <point x="426" y="1097" type="move" name="top"/>
    </contour>
  </outline>
</glyph>
<glyph name="exclamdown" format="1">
  <advance width="578"/>
  <unicode hex="00A1"/>
  <outline>
    <contour>
      <point x="322" y="-33" type="curve"/>
      <point x="217" y="-33"/>
      <point x="179" y="15"/>
      <point x="179" y="126" type="curve" smooth="yes"/>
      <point x="179" y="395"/>
      <point x="255" y="942"/>
      <point x="261" y="982" type="curve"/>
      <point x="273" y="991"/>
      <point x="287" y="995"/>
      <point x="303" y="995" type="curve"/>
      <point x="320" y="964"/>
      <point x="396" y="533"/>
      <point x="396" y="250" type="curve" smooth="yes"/>
      <point x="396" y="39"/>
      <point x="392" y="-17"/>
    </contour>
    <contour>
      <point x="438" y="1386" type="curve" smooth="yes"/>
      <point x="438" y="1296"/>
      <point x="380" y="1230"/>
      <point x="289" y="1230" type="curve" smooth="yes"/>
      <point x="204" y="1230"/>
      <point x="141" y="1300"/>
      <point x="141" y="1386" type="curve" smooth="yes"/>
      <point x="141" y="1471"/>
      <point x="196" y="1542"/>
      <point x="289" y="1542" type="curve" smooth="yes"/>
      <point x="373" y="1542"/>
      <point x="438" y="1474"/>
    </contour>
  </outline>
</glyph>
<glyph name="brokenbar" format="1">
  <advance width="509"/>
  <unicode hex="00A6"/>
  <outline>
    <contour>
      <point x="348" y="819" type="line"/>
      <point x="161" y="819" type="line"/>
      <point x="161" y="1631" type="line"/>
      <point x="348" y="1631" type="line"/>
    </contour>
    <contour>
      <point x="348" y="-249" type="line"/>
      <point x="161" y="-249" type="line"/>
      <point x="161" y="563" type="line"/>
      <point x="348" y="563" type="line"/>
    </contour>
  </outline>
</glyph>
<glyph name="section" format="1">
  <advance width="1103"/>
  <unicode hex="00A7"/>
  <outline>
    <contour>
      <point x="154" y="210" type="curve"/>
      <point x="326" y="210" type="line"/>
      <point x="326" y="-4"/>
      <point x="375" y="-10"/>
      <point x="571" y="-10" type="curve" smooth="yes"/>
      <point x="739" y="-10"/>
      <point x="767" y="18"/>
      <point x="767" y="198" type="curve" smooth="yes"/>
      <point x="767" y="331"/>
      <point x="734" y="390"/>
      <point x="625" y="403" type="curve" smooth="yes"/>
      <point x="267" y="444"/>
      <point x="169" y="482"/>
      <point x="169" y="762" type="curve" smooth="yes"/>
      <point x="169" y="866"/>
      <point x="201" y="943"/>
      <point x="265" y="993" type="curve"/>
      <point x="202" y="1050"/>
      <point x="171" y="1146"/>
      <point x="171" y="1282" type="curve" smooth="yes"/>
      <point x="171" y="1548"/>
      <point x="275" y="1613"/>
      <point x="558" y="1613" type="curve" smooth="yes"/>
      <point x="845" y="1613"/>
      <point x="948" y="1541"/>
      <point x="948" y="1263" type="curve"/>
      <point x="777" y="1263" type="line"/>
      <point x="777" y="1453"/>
      <point x="743" y="1482"/>
      <point x="556" y="1482" type="curve" smooth="yes"/>
      <point x="397" y="1482"/>
      <point x="343" y="1478"/>
      <point x="343" y="1297" type="curve" smooth="yes"/>
      <point x="343" y="1277" type="line" smooth="yes"/>
      <point x="343" y="1248"/>
      <point x="342" y="1224"/>
      <point x="342" y="1203" type="curve" smooth="yes"/>
      <point x="342" y="1096"/>
      <point x="364" y="1090"/>
      <point x="638" y="1043" type="curve" smooth="yes"/>
      <point x="849" y="1006"/>
      <point x="943" y="961"/>
      <point x="943" y="733" type="curve" smooth="yes"/>
      <point x="943" y="620"/>
      <point x="910" y="539"/>
      <point x="841" y="489" type="curve"/>
      <point x="907" y="432"/>
      <point x="940" y="334"/>
      <point x="940" y="195" type="curve" smooth="yes"/>
      <point x="940" y="-80"/>
      <point x="826" y="-140"/>
      <point x="547" y="-140" type="curve" smooth="yes"/>
      <point x="265" y="-140"/>
      <point x="154" y="-74"/>
    </contour>
    <contour>
      <point x="345" y="775" type="curve" smooth="yes"/>
      <point x="345" y="569"/>
      <point x="382" y="600"/>
      <point x="734" y="543" type="curve"/>
      <point x="755" y="559"/>
      <point x="766" y="611"/>
      <point x="766" y="685" type="curve" smooth="yes"/>
      <point x="766" y="814"/>
      <point x="742" y="849"/>
      <point x="675" y="870" type="curve" smooth="yes"/>
      <point x="511" y="920"/>
      <point x="400" y="930"/>
      <point x="370" y="939" type="curve"/>
      <point x="354" y="878"/>
      <point x="345" y="824"/>
    </contour>
  </outline>
</glyph>
<glyph name="uni00B2" format="1">
  <advance width="1005"/>
  <unicode hex="00B2"/>
  <outline>
    <contour>
      <point x="293" y="359" type="curve"/>
      <point x="842" y="359" type="line"/>
      <point x="842" y="248" type="line"/>
      <point x="148" y="248" type="line"/>
      <point x="148" y="495"/>
      <point x="186" y="584"/>
      <point x="325" y="680" type="curve" smooth="yes"/>
      <point x="590" y="863"/>
      <point x="707" y="855"/>
      <point x="707" y="1125" type="curve" smooth="yes"/>
      <point x="707" y="1277"/>
      <point x="702" y="1342"/>
      <point x="513" y="1342" type="curve" smooth="yes"/>
      <point x="348" y="1342"/>
      <point x="293" y="1319"/>
      <point x="279" y="1147" type="curve"/>
      <point x="160" y="1175" type="line"/>
      <point x="159" y="1182"/>
      <point x="159" y="1189"/>
      <point x="159" y="1196" type="curve" smooth="yes"/>
      <point x="159" y="1386"/>
      <point x="284" y="1454"/>
      <point x="501" y="1454" type="curve" smooth="yes"/>
      <point x="751" y="1454"/>
      <point x="857" y="1399"/>
      <point x="857" y="1125" type="curve" smooth="yes"/>
      <point x="857" y="899"/>
      <point x="779" y="811"/>
      <point x="615" y="719" type="curve" smooth="yes"/>
      <point x="421" y="610"/>
      <point x="297" y="561"/>
    </contour>
  </outline>
</glyph>
<glyph name="paragraph" format="1">
  <advance width="1130"/>
  <unicode hex="00B6"/>
  <outline>
    <contour>
      <point x="645" y="844" type="line"/>
      <point x="645" y="0" type="line"/>
      <point x="491" y="0" type="line"/>
      <point x="491" y="845" type="line"/>
      <point x="264" y="845"/>
      <point x="134" y="955"/>
      <point x="134" y="1190" type="curve" smooth="yes"/>
      <point x="134" y="1445"/>
      <point x="295" y="1521"/>
      <point x="582" y="1521" type="curve" smooth="yes"/>
      <point x="969" y="1521" type="line"/>
      <point x="969" y="0" type="line"/>
      <point x="816" y="0" type="line"/>
      <point x="816" y="844" type="line"/>
    </contour>
  </outline>
</glyph>
<glyph name="uni00B9" format="1">
  <advance width="585"/>
  <unicode hex="00B9"/>
  <outline>
    <contour>
      <point x="303" y="1425" type="curve"/>
      <point x="427" y="1425" type="line"/>
      <point x="427" y="240" type="line"/>
      <point x="277" y="240" type="line"/>
      <point x="277" y="1235" type="line"/>
      <point x="129" y="1235" type="line"/>
      <point x="129" y="1309" type="line"/>
      <point x="211" y="1312"/>
      <point x="271" y="1349"/>
    </contour>
  </outline>
</glyph>
<glyph name="ordmasculine" format="1">
  <advance width="975"/>
  <unicode hex="00BA"/>
  <outline>
    <contour>
      <point x="488" y="575" type="curve" smooth="yes"/>
      <point x="620" y="575"/>
      <point x="674" y="588"/>
      <point x="676" y="643" type="curve" smooth="yes"/>
      <point x="680" y="723"/>
      <point x="684" y="805"/>
      <point x="684" y="892" type="curve" smooth="yes"/>
      <point x="684" y="978"/>
      <point x="676" y="1063"/>
      <point x="676" y="1143" type="curve" smooth="yes"/>
      <point x="676" y="1206"/>
      <point x="587" y="1216"/>
      <point x="488" y="1216" type="curve" smooth="yes"/>
      <point x="389" y="1216"/>
      <point x="300" y="1206"/>
      <point x="300" y="1143" type="curve" smooth="yes"/>
      <point x="300" y="1063"/>
      <point x="292" y="978"/>
      <point x="292" y="892" type="curve" smooth="yes"/>
      <point x="292" y="805"/>
      <point x="296" y="723"/>
      <point x="300" y="643" type="curve" smooth="yes"/>
      <point x="302" y="588"/>
      <point x="356" y="575"/>
    </contour>
    <contour>
      <point x="487" y="1319" type="curve" smooth="yes"/>
      <point x="489" y="1319" type="line" smooth="yes"/>
      <point x="796" y="1319"/>
      <point x="832" y="1249"/>
      <point x="832" y="895" type="curve" smooth="yes"/>
      <point x="832" y="558"/>
      <point x="809" y="471"/>
      <point x="487" y="471" type="curve" smooth="yes"/>
      <point x="167" y="471"/>
      <point x="144" y="558"/>
      <point x="144" y="895" type="curve" smooth="yes"/>
      <point x="144" y="1249"/>
      <point x="180" y="1319"/>
    </contour>
  </outline>
</glyph>
<glyph name="onehalf" format="1">
  <advance width="885"/>
  <unicode hex="00BD"/>
  <outline>
    <contour>
      <point x="754" y="734" type="line"/>
      <point x="134" y="734" type="line"/>
      <point x="134" y="805" type="line"/>
      <point x="754" y="805" type="line"/>
    </contour>
    <contour>
      <point x="477" y="1499" type="line"/>
      <point x="477" y="898" type="line"/>
      <point x="386" y="898" type="line"/>
      <point x="386" y="1378" type="line"/>
      <point x="317" y="1378" type="line"/>
      <point x="317" y="1431" type="line"/>
      <point x="369" y="1431"/>
      <point x="399" y="1458"/>
      <point x="399" y="1499" type="curve"/>
    </contour>
    <contour>
      <point x="632" y="72" type="line"/>
      <point x="632" y="0" type="line"/>
      <point x="246" y="0" type="line"/>
      <point x="246" y="75" type="line" smooth="yes"/>
      <point x="246" y="314"/>
      <point x="550" y="229"/>
      <point x="550" y="494" type="curve" smooth="yes"/>
      <point x="550" y="572"/>
      <point x="541" y="573"/>
      <point x="428" y="573" type="curve" smooth="yes"/>
      <point x="365" y="573"/>
      <point x="333" y="572"/>
      <point x="333" y="498" type="curve"/>
      <point x="336" y="463" type="line"/>
      <point x="253" y="470" type="line"/>
      <point x="249" y="495"/>
      <point x="247" y="512"/>
      <point x="247" y="522" type="curve" smooth="yes"/>
      <point x="247" y="621"/>
      <point x="331" y="646"/>
      <point x="442" y="646" type="curve" smooth="yes"/>
      <point x="581" y="646"/>
      <point x="642" y="624"/>
      <point x="642" y="484" type="curve" smooth="yes"/>
      <point x="642" y="223"/>
      <point x="463" y="270"/>
      <point x="360" y="138" type="curve" smooth="yes"/>
      <point x="346" y="120"/>
      <point x="337" y="99"/>
      <point x="337" y="72" type="curve"/>
    </contour>
  </outline>
</glyph>
<glyph name="AE" format="1">
  <advance width="2077"/>
  <unicode hex="00C6"/>
  <outline>
    <contour>
      <point x="984" y="1490" type="move" name="top"/>
    </contour>
    <contour>
      <point x="1062" y="1342" type="curve"/>
      <point x="909" y="1068"/>
      <point x="753" y="795"/>
      <point x="598" y="523" type="curve"/>
      <point x="1061" y="523" type="line"/>
      <point x="1061" y="937" type="line" smooth="yes"/>
      <point x="1061" y="1073"/>
      <point x="1062" y="1208"/>
    </contour>
    <contour>
      <point x="1262" y="167" type="line"/>
      <point x="1936" y="167" type="line"/>
      <point x="1936" y="0" type="line"/>
      <point x="1061" y="0" type="line"/>
      <point x="1061" y="381" type="line"/>
      <point x="513" y="381" type="line"/>
      <point x="291" y="0" type="line"/>
      <point x="100" y="0" type="line"/>
      <point x="986" y="1490" type="line"/>
      <point x="1917" y="1490" type="line"/>
      <point x="1917" y="1323" type="line"/>
      <point x="1262" y="1323" type="line"/>
      <point x="1262" y="864" type="line"/>
      <point x="1806" y="864" type="line"/>
      <point x="1806" y="697" type="line"/>
      <point x="1262" y="697" type="line"/>
    </contour>
  </outline>
</glyph>
<glyph name="Thorn" format="1">
  <advance width="1302"/>
  <unicode hex="00DE"/>
  <outline>
    <contour>
      <point x="967" y="816" type="curve" smooth="yes"/>
      <point x="967" y="832" type="line" smooth="yes"/>
      <point x="967" y="1102"/>
      <point x="925" y="1120"/>
      <point x="593" y="1120" type="curve" smooth="yes"/>
      <point x="361" y="1120" type="line"/>
      <point x="361" y="551" type="line"/>
      <point x="684" y="551" type="line" smooth="yes"/>
      <point x="963" y="551"/>
      <point x="967" y="630"/>
    </contour>
    <contour>
      <point x="1166" y="832" type="curve" smooth="yes"/>
      <point x="1166" y="439"/>
      <point x="941" y="381"/>
      <point x="726" y="381" type="curve" smooth="yes"/>
      <point x="674" y="381"/>
      <point x="624" y="383"/>
      <point x="579" y="383" type="curve" smooth="yes"/>
      <point x="361" y="383" type="line"/>
      <point x="361" y="0" type="line"/>
      <point x="161" y="0" type="line"/>
      <point x="161" y="1489" type="line"/>
      <point x="361" y="1489" type="line"/>
      <point x="361" y="1284" type="line"/>
      <point x="606" y="1284" type="line" smooth="yes"/>
      <point x="1030" y="1284"/>
      <point x="1166" y="1213"/>
    </contour>
  </outline>
</glyph>
<glyph name="gcedilla" format="1">
  <advance width="1193"/>
  <unicode hex="0123"/>
  <outline>
    <contour>
      <point x="598" y="1819" type="curve" smooth="yes"/>
      <point x="703" y="1819"/>
      <point x="770" y="1734"/>
      <point x="770" y="1603" type="curve" smooth="yes"/>
      <point x="770" y="1431"/>
      <point x="637" y="1268"/>
      <point x="457" y="1268" type="curve"/>
      <point x="457" y="1328" type="line"/>
      <point x="534" y="1331"/>
      <point x="585" y="1401"/>
      <point x="585" y="1493" type="curve"/>
      <point x="490" y="1498"/>
      <point x="443" y="1554"/>
      <point x="443" y="1663" type="curve" smooth="yes"/>
      <point x="443" y="1720"/>
      <point x="501" y="1819"/>
    </contour>
    <contour>
      <point x="587" y="990" type="curve" smooth="yes"/>
      <point x="367" y="990"/>
      <point x="339" y="963"/>
      <point x="339" y="746" type="curve" smooth="yes"/>
      <point x="339" y="567"/>
      <point x="339" y="403"/>
      <point x="347" y="242" type="curve" smooth="yes"/>
      <point x="351" y="152"/>
      <point x="394" y="134"/>
      <point x="608" y="134" type="curve" smooth="yes"/>
      <point x="713" y="134"/>
      <point x="841" y="151"/>
      <point x="841" y="223" type="curve" smooth="yes"/>
      <point x="841" y="833" type="line" smooth="yes"/>
      <point x="841" y="942"/>
      <point x="783" y="990"/>
    </contour>
    <contour>
      <point x="840" y="975" type="curve"/>
      <point x="859" y="1097" type="line"/>
      <point x="1038" y="1097" type="line"/>
      <point x="1038" y="139" type="line" smooth="yes"/>
      <point x="1038" y="-235"/>
      <point x="974" y="-357"/>
      <point x="603" y="-357" type="curve" smooth="yes"/>
      <point x="474" y="-357"/>
      <point x="370" y="-344"/>
      <point x="291" y="-316" type="curve"/>
      <point x="304" y="-180" type="line"/>
      <point x="376" y="-200"/>
      <point x="464" y="-211"/>
      <point x="570" y="-211" type="curve" smooth="yes"/>
      <point x="818" y="-211"/>
      <point x="841" y="-148"/>
      <point x="841" y="-48" type="curve" smooth="yes"/>
      <point x="841" y="-25"/>
      <point x="840" y="0"/>
      <point x="840" y="26" type="curve" smooth="yes"/>
      <point x="840" y="131" type="line"/>
      <point x="804" y="38"/>
      <point x="722" y="-3"/>
      <point x="561" y="-3" type="curve" smooth="yes"/>
      <point x="158" y="-3"/>
      <point x="144" y="174"/>
      <point x="144" y="524" type="curve" smooth="yes"/>
      <point x="144" y="976"/>
      <point x="159" y="1125"/>
      <point x="515" y="1125" type="curve" smooth="yes"/>
      <point x="686" y="1125"/>
      <point x="791" y="1082"/>
    </contour>
  </outline>
</glyph>
<glyph name="OE" format="1">
  <advance width="2108"/>
  <unicode hex="0152"/>
  <outline>
    <contour>
      <point x="1033" y="1490" type="move" name="top"/>
    </contour>
    <contour>
      <point x="1103" y="154" type="line"/>
      <point x="1103" y="1337" type="line"/>
      <point x="729" y="1337" type="line" smooth="yes"/>
      <point x="395" y="1337"/>
      <point x="364" y="1294"/>
      <point x="358" y="1097" type="curve" smooth="yes"/>
      <point x="355" y="1012"/>
      <point x="355" y="926"/>
      <point x="355" y="839" type="curve" smooth="yes"/>
      <point x="355" y="801"/>
      <point x="355" y="763"/>
      <point x="355" y="725" type="curve" smooth="yes"/>
      <point x="355" y="699" type="line" smooth="yes"/>
      <point x="355" y="463"/>
      <point x="357" y="218"/>
      <point x="461" y="183" type="curve"/>
      <point x="504" y="158"/>
      <point x="613" y="154"/>
      <point x="729" y="154" type="curve" smooth="yes"/>
    </contour>
    <contour>
      <point x="1306" y="153" type="line"/>
      <point x="1967" y="153" type="line"/>
      <point x="1947" y="0" type="line"/>
      <point x="729" y="0" type="line" smooth="yes"/>
      <point x="159" y="0"/>
      <point x="151" y="158"/>
      <point x="151" y="812" type="curve" smooth="yes"/>
      <point x="151" y="1348"/>
      <point x="230" y="1490"/>
      <point x="729" y="1490" type="curve" smooth="yes"/>
      <point x="1938" y="1490" type="line"/>
      <point x="1958" y="1336" type="line"/>
      <point x="1306" y="1336" type="line"/>
      <point x="1306" y="857" type="line"/>
      <point x="1863" y="857" type="line"/>
      <point x="1863" y="695" type="line"/>
      <point x="1306" y="695" type="line"/>
    </contour>
  </outline>
</glyph>
<glyph name="uni0237" format="1">
  <advance width="616"/>
  <unicode hex="0237"/>
  <outline>
    <contour>
      <point x="258" y="1097" type="move" name="top"/>
    </contour>
    <contour>
      <point x="263" y="-64" type="curve" smooth="yes"/>
      <point x="263" y="1097" type="line"/>
      <point x="460" y="1097" type="line"/>
      <point x="460" y="61" type="line" smooth="yes"/>
      <point x="460" y="-200"/>
      <point x="403" y="-302"/>
      <point x="205" y="-302" type="curve" smooth="yes"/>
      <point x="174" y="-302"/>
      <point x="138" y="-299"/>
      <point x="99" y="-294" type="curve"/>
      <point x="94" y="-172" type="line"/>
      <point x="175" y="-168"/>
      <point x="263" y="-188"/>
    </contour>
  </outline>
</glyph>
<glyph name="endash" format="1">
  <advance width="1077"/>
  <unicode hex="2013"/>
  <outline>
    <contour>
      <point x="132" y="768" type="line"/>
      <point x="943" y="768" type="line"/>
      <point x="943" y="580" type="line"/>
      <point x="132" y="580" type="line"/>
    </contour>
  </outline>
</glyph>
<glyph name="quotesinglbase" format="1">
  <advance width="434"/>
  <unicode hex="201A"/>
  <outline>
    <contour>
      <point x="230" y="-276" type="curve"/>
      <point x="205" y="-270" type="line"/>
      <point x="205" y="-270"/>
      <point x="130" y="85"/>
      <point x="130" y="164" type="curve" smooth="yes"/>
      <point x="130" y="261"/>
      <point x="144" y="301"/>
      <point x="217" y="301" type="curve" smooth="yes"/>
      <point x="273" y="301"/>
      <point x="303" y="261"/>
      <point x="303" y="179" type="curve" smooth="yes"/>
      <point x="303" y="96"/>
      <point x="230" y="-276"/>
    </contour>
  </outline>
</glyph>
<glyph name="guilsinglright" format="1">
  <advance width="834"/>
  <unicode hex="203A"/>
  <outline>
    <contour>
      <point x="141" y="1053" type="line"/>
      <point x="236" y="1166" type="line"/>
      <point x="711" y="742" type="line"/>
      <point x="711" y="644" type="line"/>
      <point x="236" y="220" type="line"/>
      <point x="141" y="333" type="line"/>
      <point x="562" y="693" type="line"/>
    </contour>
  </outline>
</glyph>
<glyph name="trademark" format="1">
  <advance width="1173"/>
  <unicode hex="2122"/>
  <outline>
    <contour>
      <point x="342" y="1448" type="line"/>
      <point x="342" y="990" type="line"/>
      <point x="240" y="990" type="line"/>
      <point x="240" y="1448" type="line"/>
      <point x="118" y="1448" type="line"/>
      <point x="118" y="1521" type="line"/>
      <point x="464" y="1521" type="line"/>
      <point x="464" y="1448" type="line"/>
    </contour>
    <contour>
      <point x="636" y="1346" type="line"/>
      <point x="636" y="990" type="line"/>
      <point x="550" y="990" type="line"/>
      <point x="550" y="1521" type="line"/>
      <point x="669" y="1521" type="line"/>
      <point x="793" y="1132" type="line"/>
      <point x="909" y="1521" type="line"/>
      <point x="1028" y="1521" type="line"/>
      <point x="1028" y="990" type="line"/>
      <point x="932" y="990" type="line"/>
      <point x="932" y="1346" type="line"/>
      <point x="825" y="990" type="line"/>
      <point x="741" y="990" type="line"/>
    </contour>
  </outline>
</glyph>
